# xmcd
#
# Track frame offsets: 
#        182
#        35327
#        69320
#        102567
#        128570
#        149730
#        170785
#        197757
#        230805
#        252595
#        281577
#        307692
#
# Disc length: 4466 seconds
#
# Revision: 2
# Processed by: cddbd v1.5.2PL0 Copyright (c) Steve Scherf et al.
# Submitted via: ExactAudioCopy v0.99pb3
#
DISCID=b511700c
DTITLE=Willie Kent And His Gents - Live At B.L.U.E.S. In Chicago
DYEAR=1997
DGENRE=Blues
TTITLE0=Mother In Law Blues
TTITLE1=A Man And His Blues
TTITLE2=All My Life
TTITLE3=Looking Good
TTITLE4=Ship Made Of Paper
TTITLE5=Black Night
TTITLE6=I'm Good
TTITLE7=Dirty Work Going On
TTITLE8=Rock Me
TTITLE9=Sadie
TTITLE10=Tin Pan Alley
TTITLE11=If You Got To Love Somebody
EXTD=Wolf Records\n120.876 CD\n
EXTT0=
EXTT1=
EXTT2=
EXTT3=
EXTT4=
EXTT5=
EXTT6=
EXTT7=
EXTT8=
EXTT9=
EXTT10=
EXTT11=
PLAYORDER=
